<?xml version="1.0" encoding="utf-8"?>
<!-- Generator: Adobe Illustrator 27.1.0, SVG Export Plug-In . SVG Version: 6.00 Build 0)  -->
<svg version="1.1" id="Layer_1" xmlns="http://www.w3.org/2000/svg" xmlns:xlink="http://www.w3.org/1999/xlink" x="0px" y="0px"
	 viewBox="0 0 144 143.99" style="enable-background:new 0 0 144 143.99;" xml:space="preserve">
<path d="M143.87,67.9c0-0.15,0-0.29-0.01-0.39c0-0.04,0-0.1-0.01-0.16c0-0.02,0-0.02,0-0.04c-0.39-5.97-1.52-11.88-3.36-17.54
	c0,0,0-0.01,0-0.01c-0.03-0.1-0.06-0.19-0.09-0.24c-1.79-5.49-4.27-10.77-7.36-15.69c0,0,0-0.01-0.01-0.01
	c0-0.01-0.01-0.01-0.01-0.02c-0.07-0.13-0.14-0.26-0.21-0.37c0,0,0-0.01-0.01-0.01c0,0,0-0.01-0.01-0.01c0,0,0-0.01,0-0.01
	l-0.22-0.33c-0.01-0.02-0.03-0.05-0.05-0.07c0,0,0,0,0,0c0,0,0,0,0,0c-3.15-4.9-6.88-9.39-11.06-13.34l-0.15-0.15
	c-0.07-0.07-0.16-0.15-0.25-0.22c-4.26-3.98-9.07-7.47-14.31-10.37c-0.01-0.01-0.05-0.03-0.06-0.04c-0.12-0.06-0.24-0.13-0.35-0.18
	c-5.2-2.84-10.73-5.02-16.43-6.47c-11.69-3-24.13-3-35.82,0c-5.7,1.46-11.23,3.63-16.42,6.47c-0.12,0.06-0.24,0.12-0.33,0.17
	c-0.01,0.01-0.06,0.03-0.08,0.05c0,0-0.01,0-0.01,0.01c-5.22,2.89-10.03,6.38-14.3,10.36c-0.09,0.07-0.17,0.14-0.25,0.21l-0.15,0.15
	c-4.19,3.96-7.92,8.46-11.07,13.35c0,0,0,0,0,0.01c0,0,0,0,0,0c-0.02,0.02-0.03,0.04-0.05,0.07l-0.21,0.31c0,0-0.01,0.01-0.01,0.02
	l-0.01,0.01c-0.01,0.02-0.02,0.04-0.03,0.05c-0.07,0.11-0.14,0.23-0.21,0.36c-0.01,0.02-0.02,0.05-0.04,0.07
	C4.62,43.97,0.9,55.54,0.15,67.38c-0.01,0.05-0.01,0.1-0.01,0.14l0,0.04C0.05,69.06,0,70.55,0,71.99c0,16.73,5.87,33.03,16.52,45.89
	c3.87,4.65,8.27,8.79,13.09,12.3c0.02,0.02,0.05,0.04,0.08,0.06c9.8,7.13,21.31,11.69,33.33,13.17l0.37,0.04c0,0,0,0,0,0
	c2.76,0.35,5.66,0.53,8.61,0.53c2.97,0,5.88-0.18,8.61-0.53l0.4-0.04c11.98-1.49,23.49-6.04,33.29-13.17
	c0.01-0.01,0.03-0.02,0.04-0.03c0.11-0.08,0.21-0.16,0.26-0.21c4.72-3.46,9.05-7.54,12.87-12.13C138.13,105.02,144,88.72,144,71.99
	C144,70.55,143.96,69.16,143.87,67.9z M126.37,116.96c-3.74,4.5-7.98,8.5-12.67,11.93c-0.07,0.06-0.14,0.12-0.22,0.17v0
	c-0.02,0.01-0.03,0.03-0.05,0.04c-9.6,6.98-20.87,11.43-32.56,12.88c-0.08,0.01-0.16,0.01-0.23,0.02l-0.15,0.02c0,0,0,0,0,0l-0.03,0
	c-2.71,0.34-5.56,0.52-8.46,0.52c-2.91,0-5.75-0.17-8.49-0.52c0,0,0,0,0,0l-0.15-0.02c-0.08-0.01-0.15-0.02-0.2-0.02c0,0,0,0,0,0
	c-11.73-1.46-23.01-5.92-32.61-12.9c-0.02-0.02-0.05-0.04-0.08-0.07c-4.73-3.44-9.05-7.5-12.84-12.06
	C7.19,104.36,1.44,88.39,1.44,71.99c0-1.41,0.05-2.87,0.14-4.39v-0.04c0-0.02,0.01-0.05,0.01-0.07C2.32,55.86,5.98,44.5,12.18,34.62
	c0.02-0.04,0.04-0.08,0.06-0.12l0.16-0.25c0,0,0.02-0.05,0.03-0.07l0.07-0.09c0.05-0.07,0.09-0.14,0.13-0.21
	c0.01-0.01,0.02-0.02,0.02-0.04c0.02-0.02,0.03-0.04,0.04-0.06c0,0,0.01-0.01,0.01-0.01c3.09-4.79,6.74-9.19,10.86-13.09l0.15-0.15
	c0.03-0.03,0.07-0.06,0.11-0.09c0.03-0.02,0.05-0.04,0.07-0.06c4.19-3.91,8.91-7.34,14.03-10.17L38,10.16
	c0.1-0.05,0.21-0.11,0.32-0.17c0,0,0,0,0,0c0.01,0,0.01-0.01,0.02-0.01c5.09-2.78,10.51-4.91,16.1-6.34
	c11.46-2.94,23.65-2.94,35.11,0c5.59,1.43,11,3.56,16.12,6.35c0.11,0.06,0.22,0.11,0.33,0.17c0.01,0,0.02,0.01,0.04,0.02
	c0.01,0,0.01,0.01,0.01,0.01c5.13,2.84,9.86,6.27,14.04,10.18c0.02,0.02,0.05,0.04,0.07,0.06c0.04,0.03,0.07,0.06,0.11,0.09
	l0.14,0.15c0,0,0,0,0,0l0.01,0.01c4.11,3.89,7.77,8.29,10.83,13.04c0.02,0.03,0.05,0.08,0.09,0.14c0.04,0.07,0.09,0.14,0.14,0.23
	l0.06,0.09c0.01,0.03,0.05,0.1,0.06,0.12l0.13,0.21c0.01,0.02,0.02,0.03,0.03,0.05c3.04,4.82,5.47,10,7.23,15.39
	c0.01,0.02,0.02,0.05,0.03,0.07c0.01,0.03,0.03,0.06,0.04,0.1l0,0c0.01,0.02,0.01,0.04,0.02,0.07c0,0,0,0,0,0c0,0,0,0,0,0
	c0,0,0,0,0,0.01c1.81,5.57,2.92,11.37,3.29,17.24c0,0.03,0,0.05,0.01,0.08c0,0,0,0.01,0,0.04c0.01,0.11,0.01,0.22,0.01,0.33
	c0,0,0,0,0,0.01c0,0.02,0,0.03,0,0.04c0.08,1.27,0.13,2.63,0.13,4.04C142.56,88.39,136.81,104.36,126.37,116.96z M139.9,73.37
	c-0.01-0.04,0-0.08-0.02-0.12c0,0,0-0.01-0.01-0.01c-0.02-0.06-0.06-0.1-0.09-0.15c-0.02-0.03-0.03-0.06-0.06-0.09
	c-0.03-0.04-0.08-0.06-0.12-0.09c-0.04-0.03-0.07-0.06-0.11-0.07c-0.04-0.02-0.08-0.02-0.12-0.03c-0.05-0.01-0.1-0.03-0.15-0.03
	c-0.01,0-0.01,0-0.02,0c-0.01,0-0.01,0-0.02,0c-0.05,0-0.09,0.02-0.13,0.03c-0.04,0.01-0.07,0-0.11,0.02
	c-0.47,0.17-0.94,0.26-1.42,0.29c-1.39,0.08-2.74-0.37-3.78-1.29c-1.05-0.92-1.67-2.2-1.76-3.59c-0.18-2.87,2.01-5.35,4.89-5.53
	c0.45-0.03,0.92,0,1.38,0.1c0.07,0.03,0.15,0.04,0.24,0.04c0.4,0,0.72-0.33,0.72-0.72c0-0.04,0-0.07-0.01-0.1
	c-0.26-1.75-0.6-3.57-1.03-5.41c0,0,0,0,0,0c0-0.01,0-0.02,0-0.02c-0.01-0.04-0.04-0.08-0.05-0.12c-0.02-0.04-0.02-0.08-0.05-0.12
	c0,0-0.01-0.01-0.01-0.01c-0.03-0.04-0.07-0.08-0.11-0.11c-0.03-0.03-0.06-0.06-0.09-0.08c-0.03-0.02-0.06-0.02-0.09-0.04
	c-0.06-0.03-0.11-0.05-0.17-0.06c-0.03-0.01-0.06,0-0.09,0c-0.06,0-0.13-0.01-0.19,0c0,0-0.01,0-0.01,0
	c-0.04,0.01-0.08,0.04-0.12,0.05c-0.04,0.02-0.08,0.02-0.12,0.05c-0.4,0.27-0.85,0.49-1.33,0.65c-1.32,0.43-2.74,0.32-3.98-0.31
	c-1.24-0.63-2.16-1.71-2.6-3.04c-0.43-1.33-0.32-2.75,0.32-3.99c0.63-1.24,1.71-2.16,3.04-2.59c0.48-0.16,0.96-0.24,1.43-0.25
	c0.05,0,0.09-0.02,0.14-0.03c0.04-0.01,0.09-0.01,0.13-0.03c0,0,0,0,0,0c0.07-0.03,0.13-0.08,0.19-0.13
	c0.01-0.01,0.03-0.02,0.04-0.03c0.04-0.05,0.07-0.1,0.1-0.16c0.01-0.02,0.03-0.04,0.05-0.07c0.01-0.02,0.01-0.05,0.01-0.07
	c0.02-0.07,0.04-0.13,0.04-0.2c0,0,0,0,0-0.01c0-0.05-0.02-0.08-0.03-0.13c-0.01-0.05-0.01-0.09-0.03-0.14
	c-0.75-1.76-1.52-3.4-2.36-5c-0.02-0.04-0.05-0.07-0.08-0.1c-0.03-0.03-0.04-0.07-0.07-0.1c0,0-0.01-0.01-0.01-0.01
	c-0.04-0.04-0.09-0.06-0.14-0.08c-0.04-0.02-0.07-0.04-0.1-0.06c-0.04-0.01-0.08-0.01-0.13-0.02c-0.05-0.01-0.1-0.02-0.15-0.02
	c-0.03,0-0.07,0.02-0.1,0.02c-0.06,0.01-0.12,0.02-0.17,0.05c-0.01,0-0.01,0-0.02,0c-0.04,0.02-0.06,0.05-0.09,0.08
	c-0.03,0.03-0.07,0.04-0.1,0.08c-0.32,0.35-0.7,0.67-1.12,0.94c-1.18,0.75-2.57,0.99-3.93,0.69c-1.36-0.3-2.52-1.12-3.27-2.3
	c-0.75-1.18-0.99-2.57-0.69-3.93c0.3-1.36,1.12-2.52,2.31-3.27c0.41-0.26,0.85-0.47,1.31-0.6c0,0,0.01-0.01,0.01-0.01
	c0.08-0.02,0.16-0.06,0.23-0.11c0,0,0,0,0.01-0.01c0.05-0.04,0.08-0.09,0.12-0.13c0.02-0.03,0.05-0.05,0.07-0.08
	c0.02-0.03,0.02-0.07,0.03-0.1c0.02-0.05,0.05-0.11,0.05-0.16c0-0.03-0.01-0.05,0-0.08c0-0.07,0-0.14-0.02-0.2c0,0,0-0.01,0-0.01
	c-0.01-0.04-0.04-0.08-0.06-0.12c-0.02-0.04-0.03-0.09-0.06-0.12c0,0-0.01-0.01-0.01-0.01c0,0,0,0,0,0c-1.15-1.5-2.32-2.93-3.5-4.23
	c0,0,0,0,0,0c0,0-0.01-0.01-0.01-0.01c-0.03-0.04-0.07-0.05-0.11-0.08c-0.04-0.03-0.06-0.06-0.11-0.08c0,0,0,0-0.01,0
	c-0.07-0.03-0.14-0.04-0.21-0.05c-0.02,0-0.04-0.02-0.07-0.02c-0.07,0-0.13,0.01-0.2,0.03c-0.02,0.01-0.05,0-0.07,0.01
	c-0.03,0.01-0.06,0.04-0.1,0.05c-0.05,0.03-0.1,0.05-0.15,0.09c0,0,0,0-0.01,0c-0.04,0.03-0.06,0.08-0.09,0.12
	c-0.02,0.03-0.06,0.06-0.08,0.1c-0.21,0.42-0.48,0.82-0.83,1.18c-0.95,1.01-2.24,1.6-3.64,1.64c-1.41,0.05-2.73-0.46-3.74-1.41
	c-2.09-1.97-2.19-5.28-0.22-7.38c0.33-0.36,0.71-0.66,1.12-0.9c0.07-0.04,0.12-0.09,0.17-0.15c0.01-0.01,0.03-0.02,0.04-0.03
	c0,0,0,0,0-0.01c0.04-0.06,0.07-0.12,0.1-0.19c0.01-0.02,0.02-0.04,0.03-0.06c0.01-0.05,0.01-0.11,0.01-0.16
	c0-0.04,0.01-0.08,0.01-0.11c0-0.03-0.02-0.05-0.02-0.08c-0.02-0.07-0.03-0.13-0.06-0.19c0,0,0,0,0-0.01
	c-0.02-0.04-0.06-0.06-0.09-0.1c-0.03-0.04-0.05-0.08-0.09-0.11c-1.49-1.18-2.99-2.27-4.47-3.24c-0.04-0.02-0.08-0.03-0.11-0.05
	c-0.04-0.02-0.07-0.04-0.11-0.05c-0.01,0-0.01,0-0.02,0c-0.06-0.01-0.11-0.01-0.17-0.01c-0.04,0-0.07-0.01-0.11,0
	c-0.05,0.01-0.1,0.03-0.15,0.06c-0.04,0.02-0.07,0.02-0.11,0.04c-0.04,0.02-0.07,0.06-0.1,0.09c-0.04,0.03-0.07,0.06-0.1,0.1
	c0,0.01-0.01,0.01-0.02,0.02c-0.02,0.04-0.03,0.08-0.05,0.12c-0.02,0.04-0.04,0.07-0.05,0.11c-0.12,0.5-0.29,0.95-0.53,1.36
	c-0.67,1.22-1.77,2.11-3.11,2.5c-1.34,0.39-2.75,0.23-3.97-0.44c-1.22-0.67-2.11-1.77-2.5-3.11c-0.39-1.34-0.24-2.76,0.44-3.98
	c0.24-0.43,0.54-0.83,0.88-1.18c0,0,0-0.01,0.01-0.01c0.05-0.06,0.1-0.12,0.13-0.19c0-0.01,0-0.01,0-0.02
	c0.02-0.05,0.03-0.1,0.04-0.16c0.01-0.04,0.02-0.08,0.02-0.12c0-0.05-0.01-0.09-0.02-0.14c-0.01-0.04-0.01-0.09-0.03-0.13
	c-0.01-0.04-0.04-0.07-0.06-0.1c-0.03-0.05-0.05-0.09-0.09-0.13c0,0-0.01-0.01-0.01-0.02c-0.03-0.03-0.07-0.04-0.11-0.07
	c-0.03-0.02-0.06-0.05-0.1-0.07c-1.59-0.72-3.26-1.39-5.12-2.04c0,0,0,0,0,0c-0.01,0-0.01,0-0.02-0.01
	c-0.04-0.01-0.09-0.01-0.13-0.02c-0.04-0.01-0.09-0.02-0.13-0.02c0,0-0.01,0-0.01,0c-0.06,0-0.12,0.02-0.18,0.04
	c-0.03,0.01-0.07,0.01-0.09,0.02c-0.05,0.02-0.08,0.06-0.13,0.09C93.72,7.99,93.68,8,93.66,8.03c-0.02,0.03-0.04,0.06-0.06,0.09
	c-0.03,0.05-0.07,0.09-0.09,0.15c0,0,0,0.01-0.01,0.01c-0.02,0.05-0.01,0.09-0.02,0.14c-0.01,0.04-0.02,0.08-0.02,0.13
	c0.02,0.48-0.04,0.97-0.16,1.46c-0.72,2.79-3.57,4.47-6.36,3.76c-2.79-0.72-4.47-3.57-3.76-6.37c0.12-0.48,0.31-0.92,0.56-1.33
	c0,0,0-0.01,0-0.01c0.05-0.08,0.08-0.16,0.09-0.25c0,0,0,0,0,0c0.02-0.09,0.01-0.19-0.01-0.28c-0.01-0.05-0.04-0.09-0.06-0.13
	c-0.02-0.04-0.03-0.08-0.05-0.12c-0.05-0.08-0.12-0.14-0.2-0.19c0,0,0,0,0,0c-0.05-0.03-0.1-0.04-0.15-0.06
	c-0.04-0.01-0.07-0.03-0.11-0.04c0,0,0,0-0.01,0c0,0,0,0-0.01,0c-1.81-0.3-3.64-0.53-5.44-0.68c0,0-0.01,0-0.01,0
	c-0.01,0-0.01,0-0.02,0c-0.05,0-0.09,0.01-0.14,0.02c-0.04,0-0.08,0-0.12,0.01c0,0-0.01,0-0.01,0c-0.06,0.02-0.1,0.05-0.15,0.08
	c-0.03,0.02-0.07,0.03-0.1,0.06c-0.02,0.02-0.04,0.05-0.06,0.07c-0.04,0.05-0.09,0.09-0.12,0.15c-0.01,0.03-0.02,0.06-0.03,0.09
	C77.03,4.82,77.01,4.88,77,4.94c0,0,0,0.01,0,0.01c0,0.05,0.01,0.09,0.02,0.13c0,0.04,0,0.08,0.01,0.12c0.13,0.46,0.2,0.94,0.2,1.43
	c0,2.88-2.34,5.22-5.22,5.22s-5.22-2.34-5.22-5.22c0-0.49,0.07-0.97,0.2-1.43c0.01-0.04,0.01-0.09,0.01-0.13
	c0-0.04,0.02-0.08,0.01-0.13c0,0,0-0.01,0-0.01c-0.01-0.05-0.03-0.1-0.04-0.15c-0.01-0.04-0.02-0.08-0.04-0.12
	c-0.01-0.02-0.03-0.03-0.04-0.05c-0.09-0.14-0.23-0.25-0.39-0.3c0,0,0,0,0,0c-0.02-0.01-0.05,0-0.07-0.01
	c-0.06-0.01-0.12-0.03-0.19-0.02c-0.01,0-0.02,0-0.03,0c0,0,0,0,0,0c-1.8,0.15-3.63,0.37-5.44,0.68c0,0,0,0-0.01,0c0,0,0,0-0.01,0
	c-0.04,0.01-0.07,0.03-0.11,0.04c-0.05,0.02-0.1,0.03-0.15,0.06c0,0,0,0,0,0c-0.08,0.05-0.14,0.11-0.2,0.18
	c-0.04,0.05-0.06,0.11-0.08,0.17c-0.01,0.03-0.03,0.06-0.04,0.09c-0.02,0.09-0.02,0.19-0.01,0.28c0,0,0,0,0,0
	c0.02,0.09,0.05,0.18,0.09,0.25c0,0,0,0.01,0,0.01c0.25,0.41,0.44,0.85,0.56,1.34c0.71,2.79-0.97,5.64-3.76,6.36
	c-2.79,0.71-5.64-0.98-6.36-3.75c-0.12-0.49-0.17-0.98-0.16-1.46c0-0.05-0.02-0.09-0.02-0.13c-0.01-0.04,0-0.09-0.02-0.13
	c0,0,0-0.01,0-0.01c-0.02-0.06-0.06-0.11-0.1-0.16c-0.02-0.03-0.03-0.06-0.05-0.08C50.31,8,50.27,7.98,50.23,7.95
	c-0.04-0.03-0.07-0.06-0.11-0.08c-0.03-0.01-0.06-0.01-0.09-0.02c-0.06-0.02-0.12-0.04-0.18-0.04c0,0-0.01,0-0.01,0
	c-0.04,0-0.08,0.01-0.12,0.02c-0.05,0.01-0.1,0-0.14,0.02c-1.86,0.65-3.54,1.32-5.14,2.04c-0.04,0.02-0.07,0.05-0.1,0.07
	c-0.03,0.02-0.07,0.04-0.1,0.07c0,0-0.01,0.01-0.01,0.02c-0.04,0.04-0.06,0.09-0.09,0.13c-0.02,0.03-0.05,0.06-0.06,0.1
	c-0.02,0.04-0.02,0.09-0.03,0.14c-0.01,0.04-0.02,0.09-0.02,0.13c0,0.04,0.01,0.08,0.02,0.12c0.01,0.05,0.01,0.1,0.04,0.15
	c0,0.01,0,0.01,0,0.02c0.03,0.07,0.08,0.14,0.13,0.19c0,0,0,0.01,0.01,0.01c0.34,0.35,0.64,0.75,0.87,1.17
	c0.67,1.23,0.83,2.64,0.44,3.98c-0.39,1.34-1.28,2.44-2.5,3.11c-1.22,0.67-2.63,0.83-3.97,0.44c-1.34-0.39-2.44-1.28-3.12-2.51
	c-0.23-0.41-0.4-0.85-0.52-1.35c-0.01-0.04-0.03-0.07-0.05-0.11c-0.02-0.04-0.02-0.08-0.05-0.12c0-0.01-0.01-0.01-0.02-0.02
	c-0.03-0.04-0.07-0.07-0.1-0.1c-0.03-0.03-0.06-0.07-0.1-0.09c-0.03-0.02-0.07-0.03-0.11-0.05c-0.05-0.02-0.09-0.04-0.14-0.05
	c-0.04-0.01-0.08,0-0.12,0c-0.05,0-0.1,0-0.16,0.01c-0.01,0-0.01,0-0.02,0c-0.04,0.01-0.07,0.04-0.11,0.05
	c-0.04,0.02-0.08,0.02-0.11,0.05c-1.47,0.97-2.97,2.06-4.47,3.24c-0.04,0.03-0.06,0.07-0.09,0.1c-0.03,0.03-0.07,0.06-0.09,0.1
	c0,0,0,0,0,0.01c-0.03,0.06-0.05,0.13-0.06,0.19c-0.01,0.02-0.02,0.05-0.02,0.07c-0.01,0.05,0.01,0.1,0.01,0.15
	c0,0.04,0,0.09,0.01,0.13c0.01,0.02,0.02,0.05,0.03,0.07c0.02,0.06,0.05,0.13,0.09,0.18c0,0,0,0,0,0.01
	c0.01,0.01,0.03,0.02,0.04,0.03c0.05,0.05,0.1,0.11,0.17,0.15c0.41,0.23,0.79,0.54,1.12,0.9c1.97,2.1,1.87,5.41-0.22,7.38
	c-1.02,0.96-2.35,1.46-3.74,1.41c-1.39-0.04-2.68-0.63-3.64-1.64c-0.34-0.36-0.62-0.75-0.83-1.18c-0.02-0.04-0.05-0.07-0.08-0.1
	c-0.03-0.04-0.05-0.08-0.09-0.12c0,0,0,0-0.01,0c-0.06-0.05-0.12-0.08-0.19-0.11c-0.02-0.01-0.03-0.02-0.05-0.03
	c-0.07-0.03-0.15-0.03-0.23-0.03c-0.01,0-0.02-0.01-0.04-0.01c-0.03,0-0.06,0.02-0.09,0.02c-0.06,0.01-0.12,0.02-0.18,0.05
	c0,0,0,0-0.01,0c-0.04,0.02-0.07,0.05-0.1,0.08c-0.04,0.03-0.08,0.05-0.11,0.08c0,0-0.01,0.01-0.01,0.01c0,0,0,0,0,0
	c-1.18,1.31-2.36,2.73-3.5,4.23c0,0,0,0,0,0c0,0-0.01,0.01-0.01,0.01c-0.03,0.04-0.04,0.08-0.06,0.12
	c-0.02,0.04-0.05,0.08-0.06,0.12c0,0,0,0.01,0,0.01c-0.02,0.06-0.01,0.12-0.01,0.18c0,0.03-0.01,0.07-0.01,0.1
	c0.01,0.04,0.03,0.08,0.04,0.12c0.02,0.05,0.02,0.1,0.05,0.14c0.01,0.02,0.04,0.04,0.05,0.06c0.04,0.05,0.08,0.11,0.13,0.15
	c0,0,0,0,0.01,0.01c0.07,0.05,0.15,0.09,0.23,0.11c0,0,0.01,0.01,0.01,0.01c0.46,0.13,0.9,0.33,1.31,0.6c1.18,0.75,2,1.91,2.3,3.27
	c0.3,1.36,0.06,2.76-0.69,3.93c-0.75,1.18-1.91,2-3.27,2.3c-1.36,0.3-2.76,0.06-3.93-0.69c-0.43-0.28-0.81-0.59-1.12-0.95
	c-0.03-0.03-0.07-0.05-0.1-0.08c-0.03-0.02-0.06-0.06-0.09-0.08c-0.01,0-0.01,0-0.02,0c-0.05-0.02-0.1-0.03-0.16-0.05
	c-0.04-0.01-0.07-0.03-0.11-0.03c-0.05,0-0.09,0.01-0.14,0.02c-0.04,0.01-0.09,0-0.13,0.02c-0.04,0.01-0.07,0.04-0.11,0.06
	c-0.05,0.02-0.1,0.05-0.14,0.08c0,0-0.01,0.01-0.02,0.01c-0.03,0.03-0.05,0.07-0.08,0.11c-0.02,0.03-0.06,0.06-0.08,0.09
	c-0.84,1.6-1.62,3.23-2.36,4.99c-0.03,0.06-0.03,0.13-0.04,0.19c0,0.03-0.02,0.05-0.02,0.07c0,0,0,0,0,0.01
	c0,0.07,0.02,0.14,0.04,0.21c0.01,0.02,0,0.05,0.01,0.07c0.02,0.04,0.05,0.07,0.07,0.1c0.03,0.04,0.05,0.09,0.08,0.13
	c0.01,0.02,0.04,0.02,0.05,0.04c0.05,0.05,0.11,0.09,0.18,0.12c0,0,0,0,0.01,0c0.04,0.02,0.09,0.02,0.14,0.03
	c0.04,0.01,0.08,0.03,0.13,0.03c0.47,0.01,0.95,0.09,1.44,0.25c1.33,0.43,2.41,1.35,3.04,2.59c0.63,1.24,0.75,2.66,0.32,3.98
	c-0.9,2.74-3.85,4.24-6.58,3.35c-0.48-0.16-0.92-0.37-1.33-0.65c-0.04-0.02-0.08-0.03-0.11-0.05c-0.04-0.02-0.08-0.05-0.13-0.06
	c0,0-0.01,0-0.01,0C6.61,56,6.55,56,6.49,56.01c-0.03,0-0.06-0.01-0.1,0c-0.06,0.01-0.11,0.04-0.17,0.07
	c-0.03,0.01-0.06,0.02-0.08,0.03c-0.04,0.02-0.06,0.06-0.1,0.09C6,56.23,5.96,56.26,5.93,56.3c0,0-0.01,0.01-0.01,0.01
	c-0.03,0.04-0.03,0.08-0.05,0.12c-0.02,0.04-0.04,0.07-0.05,0.12c0,0.01,0,0.02,0,0.02c0,0,0,0,0,0c-0.42,1.84-0.77,3.65-1.02,5.38
	c0,0,0,0,0,0c0,0.01,0,0.02,0,0.02c-0.01,0.05,0.01,0.09,0.01,0.13c0,0.04-0.01,0.08,0,0.13c0,0,0,0.01,0,0.01
	c0.01,0.06,0.04,0.11,0.07,0.17c0.02,0.03,0.02,0.06,0.04,0.09c0.03,0.04,0.07,0.07,0.11,0.11c0.03,0.03,0.05,0.06,0.09,0.08
	c0.03,0.02,0.07,0.03,0.11,0.04c0.05,0.02,0.1,0.05,0.15,0.05c0,0,0.01,0,0.01,0c0.04,0.01,0.07,0.01,0.11,0.01
	c0.03,0,0.06-0.01,0.09-0.02c0.02,0,0.04,0,0.07,0c0.49-0.11,0.98-0.14,1.46-0.11c2.87,0.18,5.06,2.67,4.88,5.53
	c-0.18,2.87-2.66,5.08-5.55,4.88c-0.47-0.02-0.94-0.12-1.41-0.29c-0.23-0.08-0.48-0.04-0.67,0.1c-0.19,0.15-0.3,0.38-0.28,0.62
	l0.34,5.45c0.02,0.24,0.15,0.46,0.36,0.58c0.21,0.12,0.47,0.13,0.68,0.02c0.42-0.21,0.88-0.37,1.37-0.47
	c2.83-0.54,5.57,1.32,6.11,4.15c0.54,2.83-1.32,5.57-4.15,6.11c-0.47,0.09-0.95,0.12-1.47,0.08c-0.06-0.01-0.11,0.01-0.17,0.02
	c-0.03,0-0.05,0-0.08,0.01c0,0,0,0-0.01,0c-0.17,0.05-0.31,0.16-0.4,0.31c-0.01,0.01-0.02,0.02-0.03,0.04
	c-0.02,0.04-0.03,0.1-0.05,0.14C6.57,90,6.56,90.04,6.55,90.09c0,0.01,0,0.01-0.01,0.02c0,0.04,0.01,0.08,0.02,0.12
	c0,0.04,0,0.08,0.01,0.12c0.5,1.78,1.07,3.53,1.7,5.22c0,0,0,0,0,0c0,0.01,0.01,0.02,0.01,0.02c0.03,0.08,0.07,0.15,0.13,0.21
	c0,0,0,0.01,0.01,0.01c0.01,0.01,0.03,0.02,0.04,0.03c0.05,0.05,0.1,0.09,0.16,0.12c0.02,0.01,0.05,0.03,0.07,0.04
	c0.06,0.02,0.12,0.04,0.18,0.05c0.02,0,0.04,0.01,0.07,0.01c0.01,0,0.02,0,0.03,0c0.05,0,0.1-0.02,0.14-0.03
	c0.03-0.01,0.06-0.01,0.09-0.02c0,0,0.01,0,0.01,0c0.04-0.02,0.07-0.05,0.11-0.07c0.04-0.02,0.08-0.04,0.11-0.06
	c0.35-0.31,0.77-0.58,1.23-0.8c2.6-1.23,5.72-0.1,6.94,2.51c1.22,2.6,0.1,5.72-2.5,6.94c-0.45,0.21-0.92,0.35-1.39,0.42
	c-0.05,0.01-0.09,0.03-0.14,0.05c-0.04,0.01-0.08,0.02-0.12,0.04c0,0,0,0,0,0c-0.07,0.04-0.12,0.09-0.17,0.15
	c-0.01,0.01-0.03,0.02-0.04,0.04c-0.04,0.05-0.05,0.11-0.08,0.16c-0.01,0.03-0.03,0.06-0.04,0.09c-0.01,0.03,0,0.05-0.01,0.08
	c-0.01,0.07-0.02,0.13-0.01,0.2c0,0,0,0,0,0.01c0.01,0.09,0.04,0.18,0.09,0.25c0,0,0,0,0,0.01c0.93,1.61,1.93,3.17,2.96,4.66
	c0,0,0,0,0,0c0,0,0.01,0.01,0.01,0.01c0.01,0.01,0.02,0.02,0.03,0.03c0.05,0.06,0.09,0.11,0.16,0.16c0.01,0.01,0.03,0.01,0.04,0.02
	c0.03,0.02,0.07,0.03,0.11,0.04c0.06,0.02,0.13,0.04,0.19,0.05c0.02,0,0.04,0.01,0.06,0.01c0.03,0,0.06-0.01,0.1-0.01
	c0.02,0,0.05,0,0.07-0.01c0.07-0.02,0.13-0.04,0.2-0.08c0.01-0.01,0.03-0.01,0.04-0.02c0,0,0.01,0,0.01,0
	c0.04-0.03,0.06-0.07,0.1-0.1c0.03-0.03,0.07-0.05,0.09-0.09c0.26-0.39,0.59-0.75,0.97-1.07c1.07-0.89,2.43-1.31,3.82-1.18
	c1.39,0.13,2.65,0.8,3.54,1.88c1.83,2.21,1.52,5.51-0.7,7.35c-0.36,0.31-0.78,0.56-1.23,0.77c-0.04,0.02-0.07,0.05-0.1,0.07
	c-0.03,0.02-0.07,0.04-0.1,0.07c0,0-0.01,0.01-0.01,0.01c-0.04,0.04-0.07,0.09-0.09,0.14c-0.02,0.03-0.05,0.06-0.06,0.1
	c-0.02,0.04-0.02,0.09-0.03,0.14c-0.01,0.04-0.02,0.09-0.02,0.13c0,0.04,0.01,0.08,0.02,0.11c0.01,0.06,0.01,0.11,0.04,0.16
	c0,0.01,0,0.01,0,0.02c0.03,0.07,0.08,0.14,0.13,0.19c0,0,0,0.01,0.01,0.01c1.24,1.27,2.54,2.5,4,3.76c0,0,0,0,0,0
	c0,0,0.01,0.01,0.01,0.01c0.07,0.06,0.15,0.1,0.23,0.13c0,0,0,0,0,0c0.01,0,0.02,0,0.04,0c0.07,0.02,0.13,0.04,0.2,0.04
	c0.01,0,0.01,0,0.02,0c0.06,0,0.12-0.02,0.18-0.04c0.03-0.01,0.07-0.01,0.1-0.03c0.09-0.04,0.17-0.1,0.23-0.17c0,0,0.01,0,0.01-0.01
	c0.03-0.04,0.04-0.08,0.07-0.12c0.02-0.04,0.05-0.07,0.07-0.11c0.15-0.42,0.38-0.87,0.68-1.27c0.82-1.13,2.03-1.87,3.41-2.09
	c1.38-0.22,2.76,0.11,3.88,0.93c2.33,1.7,2.85,4.97,1.16,7.29c-0.29,0.41-0.63,0.75-1.02,1.05c-0.04,0.03-0.06,0.07-0.09,0.1
	c-0.03,0.03-0.06,0.06-0.09,0.09c0,0,0,0.01,0,0.01c-0.03,0.05-0.04,0.11-0.06,0.17c-0.01,0.03-0.03,0.06-0.03,0.1
	c-0.01,0.04,0,0.09,0.01,0.14c0,0.05,0,0.09,0.01,0.14c0.01,0.03,0.03,0.06,0.04,0.1c0.02,0.05,0.04,0.11,0.08,0.16
	c0,0,0,0.01,0,0.01c0.01,0.02,0.04,0.02,0.05,0.04c0.04,0.05,0.09,0.1,0.15,0.13c1.55,0.94,3.17,1.83,4.81,2.65c0,0,0,0,0,0
	c0.01,0,0.02,0.01,0.03,0.02c0.07,0.04,0.15,0.05,0.22,0.06c0.01,0,0.01,0.01,0.02,0.01c0.01,0,0.01,0,0.02,0
	c0.02,0,0.04,0.01,0.06,0.01c0.07,0,0.14-0.01,0.2-0.03c0.01,0,0.01-0.01,0.02-0.01c0.07-0.02,0.14-0.06,0.2-0.1
	c0.02-0.01,0.04-0.03,0.05-0.04c0.05-0.04,0.09-0.09,0.13-0.15c0.01-0.02,0.02-0.03,0.03-0.05c0-0.01,0.01-0.01,0.01-0.02
	c0.02-0.04,0.02-0.08,0.03-0.12c0.01-0.04,0.03-0.08,0.04-0.12c0.05-0.49,0.17-0.96,0.35-1.43c0.51-1.29,1.49-2.31,2.77-2.87
	c1.28-0.56,2.7-0.58,4-0.06c1.3,0.51,2.32,1.5,2.87,2.78c0.55,1.28,0.58,2.69,0.06,3.99c-0.16,0.41-0.39,0.82-0.68,1.22
	c-0.03,0.03-0.04,0.07-0.06,0.1c-0.02,0.03-0.04,0.06-0.06,0.09c-0.01,0.03-0.02,0.05-0.03,0.08c-0.03,0.07-0.04,0.15-0.04,0.23
	c0,0.09,0.02,0.18,0.05,0.26c0.01,0.03,0.03,0.05,0.04,0.07c0.03,0.05,0.06,0.1,0.1,0.14c0.02,0.02,0.04,0.04,0.07,0.06
	c0.04,0.04,0.09,0.07,0.14,0.09c0.03,0.01,0.06,0.03,0.09,0.04c0.02,0.01,0.03,0.02,0.05,0.02c1.76,0.53,3.55,0.99,5.31,1.36
	c0.01,0,0.02,0.01,0.03,0.01c0,0,0,0,0,0c0.05,0.01,0.1,0.02,0.15,0.02c0.02,0,0.04-0.01,0.06-0.01c0.02,0,0.04,0,0.05,0
	c0.02,0,0.03-0.01,0.05-0.02c0.06-0.01,0.11-0.03,0.16-0.06c0.03-0.02,0.06-0.03,0.09-0.05c0.05-0.03,0.08-0.07,0.12-0.12
	c0.02-0.02,0.04-0.04,0.06-0.07c0.03-0.05,0.06-0.11,0.08-0.17c0.01-0.03,0.02-0.05,0.03-0.08c0,0,0-0.01,0-0.01
	c0.01-0.04,0-0.09,0-0.13c0-0.05,0.01-0.09,0-0.14c-0.08-0.47-0.09-0.96-0.03-1.45c0.17-1.39,0.87-2.62,1.98-3.47
	c1.1-0.85,2.47-1.23,3.85-1.05c1.39,0.17,2.62,0.87,3.47,1.98c0.85,1.1,1.23,2.47,1.05,3.86c-0.06,0.48-0.18,0.95-0.37,1.4
	c-0.02,0.05-0.02,0.09-0.03,0.14c-0.01,0.04-0.03,0.07-0.03,0.11c0,0.01,0,0.01,0,0.02c0,0.06,0.01,0.11,0.03,0.16
	c0.01,0.04,0.01,0.08,0.02,0.11c0.02,0.05,0.05,0.08,0.08,0.12c0.02,0.04,0.04,0.08,0.07,0.11c0.03,0.03,0.06,0.05,0.1,0.07
	c0.04,0.03,0.08,0.07,0.13,0.09c0.01,0,0.01,0.01,0.01,0.01c0.04,0.02,0.08,0.02,0.13,0.03c0.04,0.01,0.08,0.03,0.12,0.03
	c0.01,0,0.02,0,0.03,0c0,0,0,0,0,0c0,0,0,0,0,0c0.9,0.04,1.81,0.06,2.72,0.06c0.91,0,1.82-0.02,2.72-0.06c0,0,0,0,0,0c0,0,0,0,0,0
	c0.01,0,0.02,0,0.03,0c0.04,0,0.08-0.02,0.12-0.03c0.04-0.01,0.08-0.01,0.12-0.02c0.01,0,0.01-0.01,0.01-0.01
	c0.05-0.02,0.09-0.06,0.14-0.09c0.03-0.02,0.06-0.04,0.09-0.07c0.03-0.03,0.05-0.08,0.08-0.12c0.02-0.04,0.05-0.07,0.07-0.11
	c0.01-0.04,0.01-0.08,0.02-0.12c0.01-0.05,0.03-0.11,0.03-0.16c0-0.01,0-0.01,0-0.02c0-0.06-0.02-0.12-0.04-0.18
	c-0.01-0.02,0-0.05-0.01-0.07c0-0.01,0-0.01-0.01-0.02c0,0,0-0.01,0-0.01c-0.18-0.44-0.31-0.9-0.36-1.37
	c-0.18-1.38,0.2-2.75,1.05-3.85c0.85-1.1,2.09-1.8,3.48-1.98c1.38-0.18,2.75,0.2,3.85,1.05c1.1,0.85,1.8,2.09,1.97,3.47
	c0.06,0.5,0.05,0.99-0.03,1.46c-0.01,0.05,0,0.09,0,0.14c0,0.04-0.01,0.09,0,0.13c0,0,0,0.01,0,0.01c0.01,0.03,0.02,0.05,0.03,0.07
	c0.02,0.06,0.04,0.12,0.08,0.17c0.02,0.03,0.04,0.04,0.06,0.07c0.04,0.04,0.08,0.08,0.12,0.12c0.03,0.02,0.06,0.03,0.09,0.05
	c0.05,0.03,0.1,0.05,0.16,0.06c0.02,0,0.03,0.02,0.05,0.02c0.02,0,0.03,0,0.05,0c0.02,0,0.04,0.01,0.07,0.01c0.05,0,0.1,0,0.15-0.02
	c0,0,0.01,0,0.01,0c0.01,0,0.01,0,0.02,0c1.75-0.37,3.53-0.82,5.28-1.35c0.03-0.01,0.05-0.02,0.08-0.03
	c0.03-0.01,0.07-0.02,0.1-0.04c0.05-0.02,0.09-0.05,0.13-0.09c0.03-0.02,0.05-0.04,0.08-0.07c0.04-0.04,0.07-0.09,0.09-0.14
	c0.01-0.03,0.03-0.05,0.04-0.08c0.03-0.08,0.05-0.17,0.05-0.26c0-0.08-0.02-0.15-0.04-0.22c-0.01-0.03-0.02-0.05-0.03-0.08
	c-0.02-0.03-0.04-0.07-0.06-0.1c-0.02-0.03-0.03-0.06-0.05-0.08c-0.3-0.4-0.53-0.82-0.7-1.25c-0.51-1.3-0.49-2.71,0.06-3.99
	c0.55-1.28,1.57-2.26,2.87-2.78c1.3-0.51,2.72-0.49,4,0.06c1.28,0.55,2.26,1.57,2.77,2.86c0.18,0.47,0.3,0.94,0.35,1.43
	c0,0.04,0.03,0.07,0.04,0.11c0.01,0.04,0.01,0.09,0.04,0.13c0,0.01,0.01,0.01,0.01,0.02c0.01,0.01,0.02,0.02,0.02,0.04
	c0.04,0.06,0.09,0.12,0.14,0.16c0.01,0.01,0.03,0.02,0.04,0.03c0.07,0.05,0.14,0.09,0.22,0.11c0,0,0.01,0,0.01,0
	c0.07,0.02,0.13,0.03,0.2,0.03c0.02,0,0.04,0,0.06-0.01c0.01,0,0.01,0,0.02,0c0.01,0,0.01-0.01,0.02-0.01
	c0.07-0.01,0.15-0.03,0.22-0.06c0.01,0,0.02-0.01,0.03-0.02c0,0,0,0,0,0c1.64-0.82,3.26-1.71,4.81-2.65
	c0.06-0.04,0.1-0.09,0.15-0.14c0.01-0.02,0.03-0.02,0.05-0.04c0,0,0-0.01,0-0.01c0.04-0.05,0.06-0.11,0.08-0.16
	c0.01-0.03,0.03-0.06,0.04-0.09c0.01-0.04,0.01-0.09,0.01-0.14c0-0.05,0.01-0.09,0.01-0.14c0-0.03-0.02-0.06-0.03-0.09
	c-0.02-0.06-0.03-0.12-0.06-0.17c0,0,0-0.01,0-0.01c-0.02-0.04-0.06-0.06-0.09-0.1c-0.03-0.03-0.05-0.07-0.09-0.1
	c-0.39-0.3-0.72-0.64-1.02-1.05c-0.82-1.13-1.15-2.51-0.93-3.88c0.22-1.38,0.96-2.59,2.09-3.41c1.13-0.82,2.51-1.15,3.88-0.93
	c1.38,0.22,2.59,0.96,3.41,2.09c0.29,0.41,0.53,0.85,0.68,1.28c0.02,0.05,0.05,0.08,0.07,0.12c0.02,0.04,0.03,0.08,0.06,0.11
	c0,0,0,0,0.01,0c0.07,0.08,0.15,0.13,0.24,0.18c0.03,0.01,0.06,0.01,0.09,0.02c0.06,0.02,0.12,0.04,0.19,0.04c0.01,0,0.01,0,0.02,0
	c0.07,0,0.14-0.02,0.2-0.04c0.01,0,0.02,0,0.04,0c0,0,0,0,0,0c0.08-0.03,0.16-0.07,0.23-0.13c0,0,0.01-0.01,0.01-0.01c0,0,0,0,0,0
	c1.46-1.26,2.77-2.49,4-3.76c0,0,0-0.01,0.01-0.01c0.05-0.06,0.1-0.12,0.13-0.19c0-0.01,0-0.01,0-0.02c0.02-0.05,0.03-0.1,0.04-0.16
	c0.01-0.04,0.02-0.08,0.02-0.12c0-0.05-0.01-0.09-0.02-0.13c-0.01-0.05-0.01-0.09-0.03-0.13c-0.01-0.04-0.04-0.07-0.06-0.1
	c-0.03-0.05-0.05-0.09-0.09-0.13c0,0-0.01-0.01-0.01-0.02c-0.03-0.03-0.07-0.04-0.1-0.07c-0.04-0.02-0.06-0.06-0.1-0.07
	c-0.45-0.2-0.86-0.46-1.23-0.77c-2.22-1.83-2.53-5.13-0.7-7.34c0.89-1.08,2.14-1.74,3.54-1.88c1.39-0.13,2.74,0.29,3.81,1.18
	c0.39,0.32,0.71,0.69,0.97,1.08c0.02,0.03,0.06,0.05,0.08,0.08c0.03,0.04,0.06,0.08,0.11,0.11c0,0,0.01,0,0.01,0.01
	c0.01,0.01,0.02,0.01,0.03,0.02c0.06,0.04,0.13,0.07,0.2,0.08c0.02,0.01,0.05,0.01,0.07,0.01c0.03,0,0.06,0.01,0.1,0.01
	c0.02,0,0.04-0.01,0.06-0.01c0.07-0.01,0.13-0.02,0.19-0.05c0.04-0.01,0.07-0.02,0.11-0.04c0.01-0.01,0.03-0.01,0.04-0.02
	c0.06-0.04,0.11-0.1,0.15-0.15c0.01-0.01,0.03-0.02,0.04-0.03c0,0,0.01-0.01,0.01-0.01c0,0,0,0,0,0c1.03-1.48,2.03-3.05,2.96-4.66
	c0,0,0,0,0,0c0.04-0.08,0.08-0.16,0.09-0.25c0,0,0,0,0-0.01c0.01-0.07,0-0.13-0.01-0.2c0-0.03,0-0.06-0.01-0.08
	c-0.01-0.03-0.03-0.06-0.04-0.09c-0.02-0.05-0.04-0.11-0.08-0.16c-0.01-0.01-0.03-0.02-0.04-0.04c-0.05-0.06-0.1-0.11-0.17-0.15
	c0,0,0,0,0,0c-0.04-0.02-0.07-0.02-0.11-0.04c-0.05-0.02-0.09-0.04-0.14-0.05c-0.48-0.07-0.95-0.21-1.39-0.42
	c-2.6-1.23-3.72-4.34-2.5-6.94c1.22-2.61,4.34-3.73,6.94-2.51c0.47,0.22,0.88,0.49,1.23,0.8c0.04,0.03,0.08,0.04,0.12,0.07
	c0.04,0.02,0.07,0.05,0.11,0.07c0,0,0.01,0,0.01,0c0.03,0.01,0.07,0.01,0.1,0.02c0.05,0.01,0.09,0.02,0.14,0.02
	c0.01,0,0.02,0,0.03,0c0.02,0,0.05-0.01,0.07-0.01c0.06-0.01,0.12-0.02,0.17-0.05c0.03-0.01,0.05-0.02,0.07-0.04
	c0.06-0.03,0.11-0.07,0.16-0.12c0.01-0.01,0.03-0.02,0.04-0.03c0,0,0-0.01,0.01-0.01c0.05-0.06,0.1-0.13,0.13-0.21
	c0-0.01,0.01-0.02,0.01-0.02c0,0,0,0,0,0c0.63-1.69,1.2-3.45,1.7-5.22c0.01-0.04,0.01-0.09,0.01-0.13c0-0.04,0.02-0.08,0.01-0.12
	c0-0.01,0-0.01,0-0.02c-0.01-0.06-0.03-0.11-0.05-0.17c-0.01-0.03-0.02-0.07-0.03-0.1c-0.03-0.05-0.07-0.09-0.11-0.14
	c-0.02-0.02-0.04-0.05-0.06-0.07c-0.04-0.03-0.09-0.05-0.13-0.08c-0.04-0.02-0.07-0.05-0.12-0.06c-0.01,0-0.01-0.01-0.02-0.01
	c-0.04-0.01-0.08-0.01-0.13-0.01c-0.04,0-0.08-0.02-0.12-0.02c-0.52,0.04-1.01,0.01-1.48-0.08c-1.37-0.26-2.56-1.04-3.34-2.19
	c-0.78-1.15-1.07-2.54-0.81-3.92c0.54-2.83,3.27-4.69,6.1-4.15c0.49,0.1,0.96,0.25,1.37,0.47c0.04,0.02,0.09,0.03,0.14,0.04
	c0.04,0.01,0.07,0.03,0.11,0.04c0.01,0,0.01,0,0.02,0c0,0,0.01,0,0.01,0c0.02,0,0.03,0,0.05,0c0.04,0,0.08-0.02,0.12-0.02
	c0.04-0.01,0.08-0.01,0.12-0.02c0.05-0.02,0.1-0.05,0.14-0.08c0.03-0.02,0.06-0.03,0.09-0.05c0.07-0.06,0.13-0.13,0.17-0.21
	c0,0,0,0,0,0c0.01-0.02,0.01-0.03,0.01-0.05c0.03-0.06,0.05-0.13,0.06-0.2c0-0.01,0-0.01,0-0.02c0,0,0,0,0-0.01
	c0.18-1.76,0.3-3.6,0.34-5.48C139.92,73.45,139.9,73.41,139.9,73.37z M129.64,82.98c-0.69,3.61,1.69,7.1,5.29,7.79
	c0.27,0.05,0.55,0.08,0.83,0.1c-0.33,1.12-0.69,2.23-1.08,3.32c-0.23-0.15-0.47-0.29-0.73-0.41c-3.32-1.56-7.3-0.13-8.86,3.2
	c-1.56,3.32-0.13,7.29,3.19,8.86c0.25,0.12,0.51,0.21,0.78,0.3c-0.6,1.01-1.23,1.99-1.87,2.95c-0.18-0.2-0.38-0.39-0.59-0.57
	c-1.37-1.14-3.09-1.67-4.87-1.51c-1.77,0.17-3.38,1.02-4.51,2.39c-2.34,2.83-1.94,7.03,0.88,9.37c0.21,0.18,0.44,0.34,0.68,0.49
	c-0.8,0.8-1.64,1.59-2.54,2.39c-0.13-0.24-0.27-0.47-0.44-0.7c-1.05-1.44-2.59-2.39-4.35-2.66c-1.76-0.28-3.52,0.14-4.95,1.19
	c-1.44,1.05-2.39,2.59-2.66,4.35c-0.28,1.76,0.14,3.52,1.19,4.95c0.16,0.23,0.35,0.44,0.54,0.64c-1,0.59-2.02,1.15-3.06,1.68
	c-0.07-0.26-0.15-0.53-0.25-0.79c-0.65-1.65-1.9-2.95-3.53-3.66c-1.63-0.71-3.45-0.74-5.1-0.08c-1.65,0.65-2.95,1.91-3.66,3.54
	c-0.71,1.63-0.73,3.44-0.08,5.09c0.1,0.26,0.22,0.51,0.36,0.76c-1.13,0.32-2.26,0.61-3.39,0.87c0-0.27-0.01-0.55-0.04-0.83
	c-0.22-1.77-1.11-3.34-2.52-4.43c-1.4-1.09-3.15-1.57-4.91-1.34c-1.77,0.22-3.34,1.12-4.43,2.52c-1.09,1.4-1.57,3.15-1.34,4.91
	c0.03,0.27,0.09,0.54,0.16,0.81c-1.16,0.03-2.32,0.03-3.48,0c0.07-0.27,0.12-0.53,0.16-0.8c0.23-1.77-0.25-3.51-1.34-4.92
	c-1.09-1.41-2.66-2.3-4.43-2.52c-1.76-0.23-3.51,0.25-4.92,1.34c-1.41,1.09-2.3,2.66-2.52,4.43c-0.03,0.28-0.04,0.55-0.04,0.83
	c-1.13-0.26-2.26-0.54-3.39-0.87c0.14-0.25,0.26-0.5,0.36-0.76c0.66-1.65,0.63-3.46-0.08-5.09c-0.71-1.63-2.01-2.89-3.66-3.54
	c-1.66-0.66-3.47-0.63-5.1,0.08c-1.63,0.71-2.89,2.01-3.54,3.66c-0.1,0.26-0.18,0.52-0.25,0.79c-1.04-0.54-2.06-1.1-3.06-1.68
	c0.19-0.2,0.37-0.41,0.54-0.64c2.16-2.97,1.5-7.14-1.47-9.3c-1.44-1.05-3.2-1.47-4.96-1.19c-1.76,0.28-3.3,1.23-4.35,2.67
	c-0.16,0.23-0.3,0.46-0.43,0.7c-0.9-0.8-1.74-1.59-2.54-2.39c0.24-0.15,0.46-0.31,0.67-0.49c2.83-2.34,3.23-6.54,0.89-9.37
	c-1.13-1.38-2.74-2.23-4.51-2.39c-1.77-0.16-3.5,0.37-4.87,1.51c-0.21,0.18-0.4,0.37-0.59,0.57c-0.64-0.96-1.27-1.94-1.87-2.95
	c0.26-0.08,0.52-0.18,0.78-0.3c3.32-1.56,4.75-5.54,3.19-8.86c-1.56-3.32-5.53-4.76-8.86-3.19c-0.26,0.12-0.49,0.26-0.73,0.41
	C8.93,93.11,8.57,92,8.23,90.87c0.28-0.02,0.56-0.05,0.83-0.1c3.61-0.69,5.98-4.18,5.29-7.79c-0.69-3.61-4.18-5.98-7.8-5.29
	c-0.26,0.05-0.52,0.12-0.77,0.2l-0.21-3.45c0.26,0.05,0.53,0.08,0.79,0.09c3.67,0.24,6.84-2.56,7.07-6.23
	c0.11-1.77-0.47-3.48-1.65-4.82c-1.18-1.33-2.8-2.13-4.57-2.24c-0.28-0.02-0.56-0.01-0.84,0c0.18-1.12,0.4-2.27,0.65-3.43
	c0.25,0.12,0.51,0.23,0.78,0.31c0.68,0.22,1.37,0.33,2.06,0.33c2.8,0,5.42-1.79,6.34-4.6c0.55-1.69,0.41-3.5-0.4-5.08
	c-0.81-1.59-2.19-2.76-3.88-3.31c-0.27-0.09-0.55-0.15-0.82-0.21c0.48-1.09,0.97-2.14,1.49-3.16c0.21,0.18,0.44,0.34,0.68,0.5
	c1.08,0.69,2.31,1.04,3.56,1.04c0.49,0,0.98-0.05,1.46-0.16c1.73-0.39,3.21-1.43,4.17-2.93c0.96-1.5,1.27-3.29,0.88-5.02
	c-0.39-1.73-1.43-3.21-2.93-4.17c-0.24-0.15-0.48-0.28-0.73-0.4c0.73-0.93,1.47-1.83,2.22-2.68c0.16,0.22,0.34,0.44,0.53,0.65
	c1.21,1.29,2.86,2.04,4.64,2.09c0.07,0,0.14,0,0.21,0c1.7,0,3.31-0.64,4.56-1.81c2.67-2.51,2.8-6.74,0.29-9.41
	c-0.19-0.21-0.4-0.39-0.61-0.57c0.94-0.73,1.89-1.41,2.82-2.05c0.1,0.26,0.22,0.51,0.35,0.75c0.85,1.56,2.26,2.7,3.97,3.19
	c0.62,0.18,1.24,0.27,1.87,0.27c1.11,0,2.2-0.28,3.2-0.83c1.56-0.85,2.69-2.26,3.19-3.97c0.5-1.71,0.3-3.51-0.56-5.08
	c-0.14-0.24-0.29-0.48-0.45-0.7c1.03-0.45,2.11-0.87,3.25-1.29c0.03,0.28,0.08,0.56,0.15,0.84c0.78,3,3.49,5,6.46,5
	c0.54,0,1.1-0.07,1.65-0.21c3.55-0.92,5.7-4.56,4.79-8.11c-0.07-0.27-0.16-0.53-0.26-0.79c1.15-0.17,2.31-0.32,3.46-0.43
	c-0.03,0.27-0.06,0.54-0.06,0.82c0,3.67,2.99,6.66,6.66,6.66c3.67,0,6.66-2.99,6.66-6.66c0-0.28-0.02-0.55-0.06-0.82
	c1.15,0.11,2.3,0.25,3.46,0.43c-0.1,0.26-0.19,0.52-0.26,0.79c-0.91,3.55,1.24,7.19,4.8,8.11c0.55,0.14,1.1,0.21,1.65,0.21
	c2.97,0,5.69-2,6.47-5.01c0.07-0.28,0.11-0.55,0.15-0.83c1.14,0.42,2.22,0.84,3.25,1.29c-0.16,0.23-0.32,0.46-0.46,0.71
	c-0.86,1.56-1.06,3.37-0.56,5.08c0.5,1.71,1.63,3.12,3.19,3.97c1,0.55,2.09,0.83,3.2,0.83c0.62,0,1.25-0.09,1.87-0.27
	c1.71-0.5,3.12-1.63,3.97-3.19c0.14-0.24,0.25-0.49,0.36-0.75c0.93,0.64,1.88,1.33,2.82,2.05c-0.21,0.17-0.42,0.36-0.61,0.56
	c-2.51,2.68-2.38,6.9,0.29,9.41c1.25,1.17,2.86,1.81,4.56,1.81c0.07,0,0.14,0,0.21,0c1.78-0.06,3.43-0.8,4.64-2.09
	c0.2-0.21,0.37-0.42,0.53-0.65c0.74,0.85,1.49,1.75,2.22,2.68c-0.25,0.12-0.5,0.25-0.73,0.4c-1.5,0.96-2.54,2.44-2.93,4.17
	c-0.39,1.73-0.08,3.52,0.88,5.02c0.96,1.5,2.44,2.54,4.17,2.93c0.49,0.11,0.98,0.16,1.46,0.16c1.25,0,2.48-0.36,3.56-1.05
	c0.24-0.15,0.46-0.32,0.67-0.5c0.52,1.02,1.01,2.07,1.49,3.16c-0.27,0.05-0.55,0.12-0.82,0.21c-1.69,0.55-3.07,1.72-3.88,3.3
	c-0.81,1.59-0.96,3.39-0.41,5.09c0.55,1.69,1.73,3.07,3.31,3.88c0.95,0.48,1.98,0.73,3.01,0.73c0.69,0,1.39-0.11,2.07-0.33
	c0.27-0.09,0.53-0.2,0.78-0.31c0.25,1.16,0.47,2.31,0.65,3.43c-0.28-0.02-0.56-0.02-0.84,0c-3.67,0.23-6.46,3.4-6.23,7.06
	c0.11,1.78,0.91,3.4,2.24,4.58c1.23,1.08,2.77,1.66,4.39,1.66c0.14,0,0.29,0,0.43-0.01c0.27-0.01,0.55-0.05,0.82-0.1
	c-0.04,1.18-0.11,2.34-0.21,3.47c-0.26-0.08-0.52-0.16-0.79-0.21C133.84,77.01,130.33,79.38,129.64,82.98z M125.53,71.27L98.2,68.54
	l25.69-9.71c0.35-0.13,0.54-0.5,0.44-0.86c-0.09-0.36-0.45-0.58-0.81-0.52l-27.11,4.43l22.3-16.03c0.3-0.22,0.39-0.62,0.2-0.94
	c-0.19-0.32-0.58-0.45-0.92-0.3L92.97,55.9l17.39-21.26c0.23-0.29,0.21-0.7-0.05-0.96c-0.26-0.26-0.68-0.28-0.96-0.05l-21.26,17.4
	l11.3-25.04c0.15-0.34,0.02-0.73-0.3-0.92c-0.32-0.18-0.73-0.1-0.94,0.2l-16.03,22.3l4.43-27.11c0.06-0.36-0.17-0.72-0.52-0.81
	c-0.36-0.1-0.73,0.1-0.86,0.44l-9.71,25.69l-2.73-27.33c-0.04-0.37-0.35-0.65-0.72-0.65s-0.68,0.28-0.72,0.65l-2.73,27.33
	L58.84,20.1c-0.13-0.35-0.5-0.54-0.86-0.44c-0.36,0.1-0.58,0.45-0.52,0.81l4.43,27.11L45.85,25.27c-0.22-0.3-0.62-0.39-0.94-0.2
	c-0.32,0.18-0.45,0.58-0.3,0.92l11.3,25.04l-21.26-17.4c-0.29-0.23-0.7-0.21-0.96,0.05c-0.26,0.26-0.28,0.68-0.05,0.96L51.04,55.9
	L26,44.6c-0.34-0.15-0.73-0.02-0.92,0.3c-0.18,0.32-0.1,0.73,0.2,0.94l22.3,16.03l-27.11-4.43c-0.37-0.06-0.72,0.17-0.81,0.52
	c-0.1,0.36,0.09,0.73,0.44,0.86l25.69,9.71l-27.33,2.73c-0.37,0.04-0.65,0.35-0.65,0.72s0.28,0.68,0.65,0.72l27.33,2.73l-25.69,9.71
	c-0.35,0.13-0.54,0.5-0.44,0.86c0.09,0.32,0.37,0.53,0.69,0.53c0.04,0,0.08,0,0.12-0.01l27.11-4.43l-22.3,16.03
	c-0.3,0.22-0.39,0.62-0.2,0.94c0.13,0.23,0.37,0.36,0.62,0.36c0.1,0,0.2-0.02,0.3-0.06l25.04-11.3l-17.4,21.26
	c-0.23,0.29-0.21,0.7,0.05,0.96c0.14,0.14,0.32,0.21,0.51,0.21c0.16,0,0.32-0.05,0.46-0.16l21.26-17.4l-11.3,25.04
	c-0.15,0.34-0.02,0.73,0.3,0.92c0.11,0.07,0.24,0.1,0.36,0.1c0.22,0,0.44-0.11,0.58-0.3l16.03-22.3l-4.43,27.11
	c-0.06,0.36,0.17,0.72,0.52,0.81c0.06,0.02,0.12,0.02,0.19,0.02c0.29,0,0.56-0.18,0.67-0.47l9.71-25.69l2.73,27.33
	c0.04,0.37,0.35,0.65,0.72,0.65s0.68-0.28,0.72-0.65l2.73-27.33l9.71,25.69c0.11,0.29,0.38,0.47,0.67,0.47
	c0.06,0,0.12-0.01,0.19-0.02c0.36-0.1,0.58-0.45,0.52-0.81L82.11,96.4l16.03,22.3c0.14,0.19,0.36,0.3,0.58,0.3
	c0.12,0,0.25-0.03,0.36-0.1c0.32-0.18,0.45-0.58,0.3-0.92l-11.3-25.04l21.26,17.4c0.13,0.11,0.29,0.16,0.46,0.16
	c0.18,0,0.37-0.07,0.51-0.21c0.26-0.26,0.28-0.68,0.05-0.96L92.96,88.08L118,99.38c0.1,0.04,0.2,0.06,0.3,0.06
	c0.25,0,0.49-0.13,0.62-0.36c0.18-0.32,0.1-0.73-0.2-0.94L96.41,82.1l27.11,4.43c0.04,0.01,0.08,0.01,0.12,0.01
	c0.32,0,0.61-0.21,0.69-0.53c0.1-0.36-0.09-0.73-0.44-0.86L98.2,75.44l27.33-2.73c0.37-0.04,0.65-0.35,0.65-0.72
	S125.9,71.31,125.53,71.27z M70.65,66.95C70.65,66.95,70.65,66.95,70.65,66.95c0.44-0.12,0.89-0.18,1.34-0.18c0,0,0.01,0,0.01,0
	c0,0,0.01,0,0.01,0c0.43,0,0.86,0.06,1.29,0.17c2.79,0.72,4.47,3.57,3.76,6.35c-0.72,2.79-3.56,4.48-6.35,3.76
	c-2.79-0.72-4.47-3.57-3.76-6.36c0.35-1.35,1.2-2.49,2.4-3.2c0.41-0.24,0.84-0.43,1.29-0.55C70.64,66.95,70.64,66.95,70.65,66.95z
	 M78.13,69.42l0.81-0.3l-0.78,0.36C78.15,69.45,78.14,69.44,78.13,69.42z M77.26,67.92l0.7-0.5l-0.66,0.55
	C77.28,67.95,77.27,67.93,77.26,67.92z M76.08,66.73c-0.02-0.01-0.03-0.03-0.04-0.04l0.54-0.66L76.08,66.73z M74.52,65.83l0.35-0.78
	l-0.3,0.8C74.55,65.85,74.54,65.84,74.52,65.83z M72.9,65.39c-0.02,0-0.04,0-0.06-0.01l0.14-0.85L72.9,65.39z M71.1,65.39
	l-0.08-0.85l0.14,0.84C71.14,65.39,71.12,65.39,71.1,65.39z M69.43,65.85l-0.3-0.8l0.35,0.78C69.46,65.84,69.45,65.85,69.43,65.85z
	 M67.93,66.73l-0.5-0.7l0.55,0.66C67.96,66.7,67.94,66.72,67.93,66.73z M66.7,67.96l-0.65-0.54l0.69,0.49
	C66.72,67.93,66.71,67.94,66.7,67.96z M65.84,69.47l-0.78-0.35l0.8,0.3C65.86,69.43,65.85,69.45,65.84,69.47z M65.4,71.15
	l-0.85-0.14l0.85,0.08C65.4,71.11,65.4,71.13,65.4,71.15z M65.4,72.83c0,0.02,0,0.04,0.01,0.06l-0.85,0.08L65.4,72.83z M65.87,74.56
	l-0.81,0.3l0.79-0.36C65.85,74.53,65.86,74.54,65.87,74.56z M66.74,76.06l-0.7,0.5l0.66-0.54C66.72,76.03,66.73,76.05,66.74,76.06z
	 M67.92,77.25c0.02,0.01,0.03,0.03,0.05,0.04l-0.54,0.66L67.92,77.25z M69.48,78.15l-0.35,0.78l0.3-0.8
	C69.45,78.13,69.46,78.14,69.48,78.15z M71.1,78.58c0.02,0,0.04,0.01,0.06,0.01l-0.14,0.84L71.1,78.58z M72.9,78.58l0.08,0.86
	l-0.14-0.85C72.86,78.59,72.88,78.59,72.9,78.58z M74.57,78.13l0.3,0.8l-0.35-0.78C74.54,78.14,74.56,78.13,74.57,78.13z
	 M76.07,77.25l0.5,0.7l-0.54-0.66C76.04,77.28,76.06,77.26,76.07,77.25z M77.3,76.02l0.66,0.54l-0.69-0.5
	C77.27,76.05,77.29,76.03,77.3,76.02z M78.16,74.51l0.79,0.36l-0.81-0.3C78.14,74.55,78.15,74.53,78.16,74.51z M78.6,72.83
	l0.84,0.14l-0.85-0.08C78.6,72.87,78.6,72.85,78.6,72.83z M78.6,71.15c0-0.02,0-0.04-0.01-0.06l0.86-0.08L78.6,71.15z M95.55,68
	l-13.59,1.32l12.43-5.65l22.26-3.64L95.55,68z M93.72,62.04l-12.79,4.79l10.54-8.68l20.56-9.28L93.72,62.04z M90.41,56.76
	L79.29,64.7l7.94-11.11l17.46-14.28L90.41,56.76z M85.84,52.51l-8.68,10.54l4.79-12.79l13.17-18.32L85.84,52.51z M83.97,27.33
	L80.32,49.6l-5.65,12.43l1.32-13.59L83.97,27.33z M72,25.76l2.24,22.45L72,61.67l-2.24-13.47L72,25.76z M68.01,48.44l1.32,13.59
	L63.68,49.6l-3.64-22.26L68.01,48.44z M62.05,50.27l4.79,12.79l-8.68-10.54l-9.28-20.56L62.05,50.27z M56.77,53.58l7.94,11.11
	l-11.11-7.94L39.31,39.3L56.77,53.58z M52.52,58.15l10.54,8.68l-12.79-4.79L31.96,48.87L52.52,58.15z M49.61,63.67l12.43,5.65
	L48.45,68l-21.1-7.98L49.61,63.67z M48.22,69.75l13.47,2.24l-13.47,2.25l-22.45-2.25L48.22,69.75z M48.45,75.98l13.59-1.32
	l-12.43,5.65l-22.26,3.64L48.45,75.98z M50.28,81.94l12.79-4.79l-10.54,8.68l-20.56,9.28L50.28,81.94z M53.59,87.22l11.11-7.94
	l-7.94,11.11l-17.46,14.29L53.59,87.22z M58.16,91.47l8.68-10.54l-4.79,12.79l-13.17,18.32L58.16,91.47z M60.03,116.65l3.64-22.26
	l5.65-12.43l-1.32,13.59L60.03,116.65z M72,118.22l-2.24-22.45L72,82.31l2.24,13.47L72,118.22z M75.99,95.54l-1.32-13.59l5.65,12.43
	l3.64,22.26L75.99,95.54z M81.95,93.71l-4.79-12.79l8.68,10.54l9.28,20.56L81.95,93.71z M87.23,90.39l-7.94-11.11l11.11,7.94
	l14.28,17.46L87.23,90.39z M91.48,85.83l-10.54-8.68l12.79,4.79l18.32,13.17L91.48,85.83z M94.39,80.31l-12.43-5.65l13.59,1.32
	l21.1,7.98L94.39,80.31z M95.78,74.23l-13.47-2.25l13.47-2.24l22.45,2.24L95.78,74.23z"/>
</svg>
